<?xml version="1.0" encoding="utf-8"?>
<svg version="1.1" xmlns:xlink="http://www.w3.org/1999/xlink" width="100px" height="60px" xmlns="http://www.w3.org/2000/svg">
  <g transform="matrix(1 0 0 1 -305 -424 )">
    <path d="M 305 424  L 405 424  L 405 484  L 305 484  L 305 424  " fill-rule="nonzero" fill="#cccccc" stroke="none" />
    <path d="M 309 428  L 401 428  L 401 480  L 309 480  L 309 428  " fill-rule="nonzero" fill="#ffffff" stroke="none" />
    <path d="M 361.5 442  C 358.98 442  357 440.02  357 437.5  C 357 434.98  358.98 433  361.5 433  C 364.02 433  366 434.98  366 437.5  C 366 440.02  364.02 442  361.5 442  " fill-rule="nonzero" fill="#cccccc" stroke="none" />
    <path d="M 311 479  L 311 452.05  L 333.25 439.8  L 364.4 461.36  L 382.2 447.15  L 400 461.36  L 400 479  L 311 479  " fill-rule="nonzero" fill="#169bd5" stroke="none" />
  </g>
</svg>