<?xml version="1.0" encoding="utf-8"?>
<svg version="1.1" xmlns:xlink="http://www.w3.org/1999/xlink" width="94px" height="35px" xmlns="http://www.w3.org/2000/svg">
  <defs>
    <linearGradient gradientUnits="userSpaceOnUse" x1="47" y1="0" x2="47" y2="35" id="LinearGradient11">
      <stop id="Stop12" stop-color="#4342a9" offset="0" />
      <stop id="Stop13" stop-color="#4342a9" offset="0.54" />
      <stop id="Stop14" stop-color="#12167e" offset="1" />
    </linearGradient>
    <mask fill="white" id="clip15">
      <path d="M 0 30.8  L 0 4.2  C 0 1.84800000000007  1.45976470588235 0  3.31764705882353 0  L 42.0235294117647 0  L 43.1294117647059 0  L 44.2352941176471 0  L 90.6823529411765 0  C 92.5402352941177 0  94 1.84800000000007  94 4.2  L 94 30.8  C 94 33.1519999999999  92.5402352941177 35  90.6823529411765 35  L 3.31764705882353 35  C 1.45976470588235 35  0 33.1519999999999  0 30.8  Z " fill-rule="evenodd" />
    </mask>
  </defs>
  <g transform="matrix(1 0 0 1 -315 -632 )">
    <path d="M 0 30.8  L 0 4.2  C 0 1.84800000000007  1.45976470588235 0  3.31764705882353 0  L 42.0235294117647 0  L 43.1294117647059 0  L 44.2352941176471 0  L 90.6823529411765 0  C 92.5402352941177 0  94 1.84800000000007  94 4.2  L 94 30.8  C 94 33.1519999999999  92.5402352941177 35  90.6823529411765 35  L 3.31764705882353 35  C 1.45976470588235 35  0 33.1519999999999  0 30.8  Z " fill-rule="nonzero" fill="url(#LinearGradient11)" stroke="none" transform="matrix(1 0 0 1 315 632 )" />
    <path d="M 0 30.8  L 0 4.2  C 0 1.84800000000007  1.45976470588235 0  3.31764705882353 0  L 42.0235294117647 0  L 43.1294117647059 0  L 44.2352941176471 0  L 90.6823529411765 0  C 92.5402352941177 0  94 1.84800000000007  94 4.2  L 94 30.8  C 94 33.1519999999999  92.5402352941177 35  90.6823529411765 35  L 3.31764705882353 35  C 1.45976470588235 35  0 33.1519999999999  0 30.8  Z " stroke-width="2" stroke="#000000" fill="none" transform="matrix(1 0 0 1 315 632 )" mask="url(#clip15)" />
  </g>
</svg>