<?xml version="1.0" encoding="UTF-8"?>
<svg id="Capa_1" data-name="Capa 1" xmlns="http://www.w3.org/2000/svg" viewBox="0 0 283.46 283.46">
  <defs>
    <style>
      .cls-1 {
        fill: #1d1d1b;
      }
    </style>
  </defs>
  <path class="cls-1" d="m59.35,187.11l2.79,34.91,34.21,2.09,3.49,32.12L0,283.46l26.53-99.84,32.82,3.49Zm175.25-59.35l-120.09,120.79-4.89-38.4-33.51-2.09-2.79-34.21-38.4-4.19,120.79-120.79,78.9,78.9Zm-4.89-120.79l46.78,47.48c4.65,4.19,6.98,9.43,6.98,15.71s-2.33,11.52-6.98,15.71l-31.42,31.42-78.9-78.89,31.42-31.42c4.65-4.65,10-6.98,16.06-6.98s11.4,2.33,16.06,6.98Z"/>
</svg>