<?xml version="1.0" encoding="utf-8"?>
<!-- Generator: Adobe Illustrator 16.0.0, SVG Export Plug-In . SVG Version: 6.00 Build 0)  -->
<!DOCTYPE svg PUBLIC "-//W3C//DTD SVG 1.1//EN" "http://www.w3.org/Graphics/SVG/1.1/DTD/svg11.dtd">
<svg version="1.1" xmlns="http://www.w3.org/2000/svg" xmlns:xlink="http://www.w3.org/1999/xlink" x="0px" y="0px"
	 width="470.988px" height="79.995px" viewBox="0 0 470.988 79.995" enable-background="new 0 0 470.988 79.995"
	 xml:space="preserve">
<g id="Capa">
</g>
<g id="Capa_1">
	<path fill-rule="evenodd" clip-rule="evenodd" fill="#323232" d="M120.118,54.167c0,0.46,0.3,0.77,0.74,0.77h9.28
		c0.44,0,0.74-0.31,0.74-0.77V3.817c0-0.46-0.3-0.76-0.74-0.76h-9.28c-0.44,0-0.74,0.3-0.74,0.76V54.167z"/>
	<path fill-rule="evenodd" clip-rule="evenodd" fill="#323232" d="M148.587,54.167c0,0.46,0.3,0.77,0.74,0.77h8.39
		c0.45,0,0.75-0.31,0.75-0.77v-32.57h0.38l18.73,32.57c0.31,0.54,0.7,0.77,1.31,0.77h8.83c0.45,0,0.75-0.31,0.75-0.77V3.817
		c0-0.46-0.3-0.76-0.75-0.76h-8.39c-0.44,0-0.74,0.3-0.74,0.76v32.65h-0.39l-18.65-32.65c-0.31-0.53-0.77-0.76-1.31-0.76h-8.91
		c-0.44,0-0.74,0.3-0.74,0.76V54.167z"/>
	<path fill-rule="evenodd" clip-rule="evenodd" fill="#323232" d="M205.118,54.167c0,0.46,0.3,0.77,0.74,0.77h8.39
		c0.45,0,0.74-0.31,0.74-0.77l0.01-14.71l-9.72-9.84c-0.07-0.07-0.12-0.13-0.16-0.21V54.167z M243.118,40.738v13.43
		c0,0.46,0.3,0.77,0.74,0.77h8.39c0.45,0,0.74-0.31,0.74-0.77v-23.44L243.118,40.738z"/>
	<path fill-rule="evenodd" clip-rule="evenodd" fill="#C32723" d="M229.308,42.708c-0.37,0.38-0.87,0.39-1.24,0.01l-23.79-24.1
		c-0.37-0.38-0.37-0.88,0-1.26l7.15-7.25c0.38-0.38,0.88-0.38,1.25,0l16.01,16.21l22.58-23.01c0.38-0.38,0.92-0.43,1.3-0.05
		l7.15,7.25c0.37,0.38,0.37,0.88,0,1.26L229.308,42.708z"/>
	<path fill-rule="evenodd" clip-rule="evenodd" fill="#323232" d="M289.578,46.067c-4.3,0-7.06-2.16-8.21-5.79
		c-0.62-1.86-0.85-4.41-0.85-11.28s0.23-9.42,0.85-11.28c1.15-3.63,3.91-5.79,8.21-5.79c4.3,0,7.07,2.16,8.22,5.79
		c0.62,1.86,0.85,4.41,0.85,11.28s-0.23,9.42-0.85,11.28C296.647,43.908,293.877,46.067,289.578,46.067z M289.578,55.948
		c9.14,0,16-4.18,18.55-12.58c1.1-3.63,1.39-6.57,1.39-14.37s-0.29-10.74-1.39-14.37c-2.55-8.4-9.41-12.58-18.55-12.58
		c-9.13,0-15.99,4.18-18.55,12.58c-1.09,3.63-1.38,6.57-1.38,14.37s0.29,10.74,1.38,14.37
		C273.587,51.768,280.448,55.948,289.578,55.948z"/>
	<path fill-rule="evenodd" clip-rule="evenodd" fill="#323232" d="M325.558,43.208c2.63,8.48,8.98,12.74,18.09,12.74
		c8.83,0,15.28-4.26,18.2-11.5c0.23-0.39,0.08-0.77-0.38-0.93l-8.37-3.78c-0.46-0.23-0.85-0.08-1.08,0.38
		c-1.46,3.4-3.91,5.95-8.29,5.95c-4.07,0-6.68-2.16-7.84-5.79c-0.61-1.93-0.84-3.79-0.84-11.28s0.23-9.35,0.84-11.28
		c1.16-3.63,3.77-5.79,7.84-5.79c4.38,0,6.83,2.55,8.29,5.95c0.23,0.46,0.62,0.62,1.08,0.38l8.37-3.78
		c0.46-0.15,0.61-0.54,0.38-0.93c-2.92-7.24-9.37-11.5-18.2-11.5c-9.11,0-15.46,4.26-18.09,12.74c-1.09,3.4-1.39,6.1-1.39,14.21
		S324.468,39.808,325.558,43.208z"/>
	<path fill-rule="evenodd" clip-rule="evenodd" fill="#323232" d="M394.638,46.067c-4.3,0-7.07-2.16-8.22-5.79
		c-0.61-1.86-0.84-4.41-0.84-11.28s0.23-9.42,0.84-11.28c1.15-3.63,3.92-5.79,8.22-5.79c4.3,0,7.07,2.16,8.22,5.79
		c0.61,1.86,0.84,4.41,0.84,11.28s-0.23,9.42-0.84,11.28C401.708,43.908,398.938,46.067,394.638,46.067z M394.638,55.948
		c9.14,0,16-4.18,18.55-12.58c1.1-3.63,1.39-6.57,1.39-14.37s-0.29-10.74-1.39-14.37c-2.55-8.4-9.41-12.58-18.55-12.58
		c-9.14,0-16,4.18-18.55,12.58c-1.1,3.63-1.39,6.57-1.39,14.37s0.29,10.74,1.39,14.37C378.638,51.768,385.498,55.948,394.638,55.948
		z"/>
	<path fill-rule="evenodd" clip-rule="evenodd" fill="#323232" d="M451.007,26.058h-9.49c-0.32,0-0.48-0.15-0.48-0.47v-12.25
		c0-0.31,0.16-0.47,0.48-0.47h9.49c4.43,0,7.28,2.58,7.28,6.56C458.288,23.488,455.438,26.058,451.007,26.058z M469.498,54.938
		c0.54,0,0.77-0.47,0.54-0.93l-9.85-20.56c5.49-2.35,8.85-7.25,8.85-14.02c0-9.63-6.73-16.31-17.39-16.31h-20.63
		c-0.44,0-0.73,0.3-0.73,0.76v50.29c0,0.46,0.29,0.77,0.73,0.77h9.29c0.44,0,0.73-0.31,0.73-0.77v-18.77c0-0.31,0.16-0.46,0.48-0.46
		h7.2l9.25,19.23c0.24,0.54,0.47,0.77,1.13,0.77H469.498z"/>
	<path fill-rule="evenodd" clip-rule="evenodd" fill="#323232" d="M125.897,77.127c1.85,0,2.94-0.99,3.64-2.37
		c0.06-0.13,0.21-0.21,0.37-0.13l1.56,0.76c0.13,0.07,0.15,0.2,0.1,0.33c-1.01,2.27-3.04,3.57-5.67,3.57
		c-2.88,0-4.99-1.38-5.87-4.16c-0.34-1.02-0.47-2.03-0.47-4.97s0.13-3.95,0.47-4.97c0.88-2.78,2.99-4.16,5.87-4.16
		c2.63,0,4.66,1.3,5.67,3.57c0.05,0.13,0.03,0.26-0.1,0.33l-1.56,0.76c-0.16,0.08-0.31,0-0.37-0.13c-0.7-1.38-1.79-2.37-3.64-2.37
		c-1.92,0-3.09,0.94-3.66,2.6c-0.24,0.73-0.34,1.59-0.34,4.37c0,2.78,0.1,3.64,0.34,4.37
		C122.808,76.188,123.978,77.127,125.897,77.127z M144.797,65.817c-0.54-1.69-1.79-2.63-3.77-2.63c-1.95,0-3.19,0.94-3.74,2.63
		c-0.21,0.65-0.39,1.79-0.39,4.34c0,2.55,0.18,3.69,0.39,4.34c0.55,1.69,1.79,2.63,3.74,2.63c1.98,0,3.23-0.94,3.77-2.63
		c0.21-0.65,0.39-1.79,0.39-4.34C145.188,67.607,145.007,66.468,144.797,65.817z M141.027,79.288c-2.96,0-5.09-1.41-6-4.14
		c-0.34-1.01-0.47-2.08-0.47-4.99c0-2.91,0.13-3.98,0.47-4.99c0.91-2.73,3.04-4.14,6-4.14c2.99,0,5.13,1.41,6.04,4.14
		c0.33,1.01,0.46,2.08,0.46,4.99c0,2.91-0.13,3.98-0.46,4.99C146.158,77.877,144.018,79.288,141.027,79.288z M164.547,78.998
		c-0.16,0-0.26-0.1-0.26-0.26v-12.3h-0.08l-4.39,9.73c-0.11,0.23-0.24,0.31-0.47,0.31h-1.04c-0.26,0-0.39-0.08-0.5-0.31l-4.39-9.73
		h-0.08v12.3c0,0.16-0.1,0.26-0.26,0.26h-1.64c-0.15,0-0.26-0.1-0.26-0.26v-17.16c0-0.16,0.11-0.26,0.26-0.26h1.69
		c0.21,0,0.34,0.08,0.42,0.26l5.28,11.91h0.08l5.17-11.91c0.08-0.18,0.21-0.26,0.42-0.26h1.69c0.15,0,0.26,0.1,0.26,0.26v17.16
		c0,0.16-0.11,0.26-0.26,0.26H164.547z M177.607,63.478h-3.96c-0.1,0-0.15,0.05-0.15,0.15v5.93c0,0.11,0.05,0.16,0.15,0.16h3.96
		c2.18,0,3.45-1.2,3.45-3.12C181.058,64.667,179.788,63.478,177.607,63.478z M177.738,71.877h-4.09c-0.1,0-0.15,0.05-0.15,0.15v6.71
		c0,0.16-0.11,0.26-0.26,0.26h-1.8c-0.15,0-0.26-0.1-0.26-0.26v-17.16c0-0.16,0.11-0.26,0.26-0.26h6.3c3.4,0,5.61,2.08,5.61,5.28
		C183.348,69.797,181.138,71.877,177.738,71.877z M196.058,66.417c0-1.85-1.22-2.94-3.27-2.94h-4.14c-0.1,0-0.15,0.05-0.15,0.15
		v5.57c0,0.1,0.05,0.15,0.15,0.15h4.14C194.837,69.348,196.058,68.257,196.058,66.417z M196.428,78.998c-0.18,0-0.26-0.08-0.34-0.26
		l-3.54-7.23h-3.9c-0.1,0-0.15,0.05-0.15,0.16v7.07c0,0.16-0.11,0.26-0.26,0.26h-1.8c-0.15,0-0.26-0.1-0.26-0.26v-17.16
		c0-0.16,0.11-0.26,0.26-0.26h6.4c3.3,0,5.54,2.03,5.54,5.1c0,2.39-1.35,4.13-3.49,4.81l3.77,7.46c0.11,0.15,0.03,0.31-0.15,0.31
		H196.428z M207.928,64.728h-0.05l-2.81,8.03h5.64L207.928,64.728z M213.158,78.998c-0.19,0-0.29-0.08-0.34-0.26l-1.35-3.85h-7.15
		l-1.36,3.85c-0.07,0.18-0.18,0.26-0.33,0.26h-1.82c-0.16,0-0.24-0.1-0.19-0.26l6.14-17.16c0.05-0.16,0.13-0.26,0.31-0.26h1.69
		c0.18,0,0.29,0.1,0.34,0.26l6.06,17.16c0.05,0.16-0.03,0.26-0.18,0.26H213.158z M224.397,78.738c-0.05,0.16-0.16,0.26-0.31,0.26
		h-1.54c-0.15,0-0.26-0.1-0.31-0.26l-5.72-17.11c-0.08-0.21,0.03-0.31,0.18-0.31h1.77c0.21,0,0.31,0.08,0.36,0.26l4.53,13.65h0.05
		l4.37-13.65c0.05-0.18,0.15-0.26,0.34-0.26h1.79c0.16,0,0.26,0.1,0.18,0.31L224.397,78.738z M233.438,78.998
		c-0.15,0-0.26-0.1-0.26-0.26v-17.16c0-0.16,0.11-0.26,0.26-0.26h10.64c0.15,0,0.26,0.1,0.26,0.26v1.64c0,0.15-0.11,0.26-0.26,0.26
		h-8.43c-0.1,0-0.15,0.05-0.15,0.15v5.2c0,0.11,0.05,0.16,0.15,0.16h7.15c0.16,0,0.26,0.1,0.26,0.26v1.64c0,0.15-0.1,0.26-0.26,0.26
		h-7.15c-0.1,0-0.15,0.05-0.15,0.15v5.39c0,0.1,0.05,0.15,0.15,0.15h8.43c0.15,0,0.26,0.11,0.26,0.26v1.64
		c0,0.16-0.11,0.26-0.26,0.26H233.438z M258.897,78.998c-0.19,0-0.34-0.05-0.45-0.26l-8.03-13.21h-0.08v13.21
		c0,0.16-0.1,0.26-0.26,0.26h-1.64c-0.15,0-0.26-0.1-0.26-0.26v-17.16c0-0.16,0.11-0.26,0.26-0.26h1.67c0.21,0,0.34,0.05,0.44,0.26
		l8.01,13.26h0.1v-13.26c0-0.16,0.11-0.26,0.26-0.26h1.64c0.16,0,0.26,0.1,0.26,0.26v17.16c0,0.16-0.1,0.26-0.26,0.26H258.897z
		 M271.288,63.478c-0.1,0-0.15,0.05-0.15,0.15v15.11c0,0.16-0.11,0.26-0.26,0.26h-1.8c-0.15,0-0.26-0.1-0.26-0.26v-15.11
		c0-0.1-0.05-0.15-0.15-0.15h-4.84c-0.15,0-0.26-0.11-0.26-0.26v-1.64c0-0.16,0.11-0.26,0.26-0.26h12.3c0.16,0,0.26,0.1,0.26,0.26
		v1.64c0,0.15-0.1,0.26-0.26,0.26H271.288z M284.928,64.728h-0.05l-2.81,8.03h5.64L284.928,64.728z M290.158,78.998
		c-0.19,0-0.29-0.08-0.34-0.26l-1.35-3.85h-7.15l-1.36,3.85c-0.07,0.18-0.18,0.26-0.33,0.26h-1.82c-0.16,0-0.24-0.1-0.19-0.26
		l6.14-17.16c0.05-0.16,0.13-0.26,0.31-0.26h1.69c0.18,0,0.29,0.1,0.34,0.26l6.06,17.16c0.05,0.16-0.03,0.26-0.18,0.26H290.158z
		 M310.928,65.897c-0.57-1.72-1.89-2.42-4.03-2.42h-3.25c-0.1,0-0.15,0.05-0.15,0.15v13.06c0,0.1,0.05,0.15,0.15,0.15h3.25
		c2.14,0,3.46-0.7,4.03-2.42c0.24-0.65,0.37-1.5,0.37-4.26C311.297,67.397,311.167,66.547,310.928,65.897z M307.397,78.998h-5.96
		c-0.15,0-0.26-0.1-0.26-0.26v-17.16c0-0.16,0.11-0.26,0.26-0.26h5.96c2.99,0,4.96,1.27,5.77,3.77c0.31,0.96,0.47,1.92,0.47,5.07
		c0,3.15-0.16,4.11-0.47,5.07C312.357,77.728,310.388,78.998,307.397,78.998z M317.438,78.998c-0.15,0-0.26-0.1-0.26-0.26v-17.16
		c0-0.16,0.11-0.26,0.26-0.26h10.64c0.15,0,0.26,0.1,0.26,0.26v1.64c0,0.15-0.11,0.26-0.26,0.26h-8.43c-0.1,0-0.15,0.05-0.15,0.15
		v5.2c0,0.11,0.05,0.16,0.15,0.16h7.15c0.16,0,0.26,0.1,0.26,0.26v1.64c0,0.15-0.1,0.26-0.26,0.26h-7.15c-0.1,0-0.15,0.05-0.15,0.15
		v5.39c0,0.1,0.05,0.15,0.15,0.15h8.43c0.15,0,0.26,0.11,0.26,0.26v1.64c0,0.16-0.11,0.26-0.26,0.26H317.438z M338.438,78.998
		c-0.15,0-0.26-0.1-0.26-0.26v-17.16c0-0.16,0.11-0.26,0.26-0.26h1.8c0.15,0,0.26,0.1,0.26,0.26v17.16c0,0.16-0.11,0.26-0.26,0.26
		H338.438z M355.897,78.998c-0.19,0-0.34-0.05-0.45-0.26l-8.03-13.21h-0.08v13.21c0,0.16-0.1,0.26-0.26,0.26h-1.64
		c-0.15,0-0.26-0.1-0.26-0.26v-17.16c0-0.16,0.11-0.26,0.26-0.26h1.67c0.21,0,0.34,0.05,0.44,0.26l8.01,13.26h0.1v-13.26
		c0-0.16,0.11-0.26,0.26-0.26h1.64c0.16,0,0.26,0.1,0.26,0.26v17.16c0,0.16-0.1,0.26-0.26,0.26H355.897z M375.547,78.998
		c-0.16,0-0.26-0.1-0.26-0.26v-12.3h-0.08l-4.39,9.73c-0.11,0.23-0.24,0.31-0.47,0.31h-1.04c-0.26,0-0.39-0.08-0.5-0.31l-4.39-9.73
		h-0.08v12.3c0,0.16-0.1,0.26-0.26,0.26h-1.64c-0.15,0-0.26-0.1-0.26-0.26v-17.16c0-0.16,0.11-0.26,0.26-0.26h1.69
		c0.21,0,0.34,0.08,0.42,0.26l5.28,11.91h0.08l5.17-11.91c0.08-0.18,0.21-0.26,0.42-0.26h1.69c0.15,0,0.26,0.1,0.26,0.26v17.16
		c0,0.16-0.11,0.26-0.26,0.26H375.547z M388.317,79.288c-3.9,0-6.27-2.29-6.27-6.45v-11.26c0-0.16,0.11-0.26,0.26-0.26h1.8
		c0.15,0,0.26,0.1,0.26,0.26v11.23c0,2.86,1.58,4.32,3.95,4.32c2.34,0,3.93-1.46,3.93-4.32v-11.23c0-0.16,0.1-0.26,0.26-0.26h1.79
		c0.16,0,0.26,0.1,0.26,0.26v11.26C394.558,76.998,392.188,79.288,388.317,79.288z M399.438,78.998c-0.15,0-0.26-0.1-0.26-0.26
		v-17.16c0-0.16,0.11-0.26,0.26-0.26h10.64c0.15,0,0.26,0.1,0.26,0.26v1.64c0,0.15-0.11,0.26-0.26,0.26h-8.43
		c-0.1,0-0.15,0.05-0.15,0.15v5.2c0,0.11,0.05,0.16,0.15,0.16h7.15c0.16,0,0.26,0.1,0.26,0.26v1.64c0,0.15-0.1,0.26-0.26,0.26h-7.15
		c-0.1,0-0.15,0.05-0.15,0.15v5.39c0,0.1,0.05,0.15,0.15,0.15h8.43c0.15,0,0.26,0.11,0.26,0.26v1.64c0,0.16-0.11,0.26-0.26,0.26
		H399.438z M420.788,71.067h-4.14c-0.1,0-0.15,0.05-0.15,0.16v5.51c0,0.1,0.05,0.15,0.15,0.15h4.14c2.1,0,3.25-1.14,3.25-2.91
		C424.038,72.238,422.888,71.067,420.788,71.067z M423.748,66.208c0-1.69-1.14-2.78-3.09-2.78h-4.01c-0.1,0-0.15,0.05-0.15,0.15
		v5.23c0,0.1,0.05,0.15,0.15,0.15h4.01C422.607,68.958,423.748,67.848,423.748,66.208z M426.348,73.958c0,3.3-2.08,5.04-5.77,5.04
		h-6.14c-0.15,0-0.26-0.1-0.26-0.26v-17.16c0-0.16,0.11-0.26,0.26-0.26h6.27c3.56,0,5.33,1.82,5.33,4.65c0,2.06-0.99,3.31-2.37,3.85
		v0.05C424.868,70.208,426.348,71.587,426.348,73.958z M430.438,78.998c-0.15,0-0.26-0.1-0.26-0.26v-17.16
		c0-0.16,0.11-0.26,0.26-0.26h1.8c0.15,0,0.26,0.1,0.26,0.26v15.11c0,0.1,0.05,0.15,0.15,0.15h8.43c0.15,0,0.26,0.11,0.26,0.26v1.64
		c0,0.16-0.11,0.26-0.26,0.26H430.438z M444.438,78.998c-0.15,0-0.26-0.1-0.26-0.26v-17.16c0-0.16,0.11-0.26,0.26-0.26h10.64
		c0.15,0,0.26,0.1,0.26,0.26v1.64c0,0.15-0.11,0.26-0.26,0.26h-8.43c-0.1,0-0.15,0.05-0.15,0.15v5.2c0,0.11,0.05,0.16,0.15,0.16
		h7.15c0.16,0,0.26,0.1,0.26,0.26v1.64c0,0.15-0.1,0.26-0.26,0.26h-7.15c-0.1,0-0.15,0.05-0.15,0.15v5.39c0,0.1,0.05,0.15,0.15,0.15
		h8.43c0.15,0,0.26,0.11,0.26,0.26v1.64c0,0.16-0.11,0.26-0.26,0.26H444.438z M469.188,64.468c-0.1,0.13-0.23,0.13-0.36,0.05
		c-1.43-0.89-2.76-1.33-4.26-1.33c-2.16,0-3.36,1.17-3.36,2.86c0,1.48,0.99,2.47,3.72,2.84l0.86,0.13c3.46,0.46,5.2,2.05,5.2,4.94
		c0,3.09-2.19,5.33-6.45,5.33c-2.5,0-4.91-1.02-6.21-2.21c-0.11-0.11-0.13-0.26-0.03-0.39l1.14-1.36c0.11-0.13,0.24-0.13,0.37-0.02
		c1.14,0.91,2.91,1.82,4.94,1.82c2.44,0,3.9-1.22,3.9-3.02c0-1.51-0.86-2.52-3.69-2.88l-0.89-0.13c-3.43-0.47-5.2-2.11-5.2-4.89
		c0-3.15,2.26-5.18,5.77-5.18c2.08,0,4.09,0.68,5.39,1.64c0.13,0.11,0.15,0.24,0.05,0.37L469.188,64.468z"/>
	<path fill-rule="evenodd" clip-rule="evenodd" fill="#323232" d="M30.498,0.337c-0.45-0.45-1.05-0.45-1.5,0l-28.66,28.68
		c-0.45,0.44-0.45,1.05,0,1.5l8.62,8.62c0.45,0.45,1.05,0.46,1.5,0.01l19.29-19.3l19.45,19.45l0.26,0.26
		c0.45,0.46,1.05,0.46,1.5,0.01l28.66-28.68c0.45-0.45,0.45-1.05,0.01-1.5l-8.63-8.63c-0.45-0.45-1.05-0.45-1.5,0l-19.29,19.3
		L30.498,0.337z"/>
	<path fill-rule="evenodd" clip-rule="evenodd" fill="#C32723" d="M50.958,79.658c-0.45,0.45-1.05,0.45-1.5,0l-28.66-28.68
		c-0.45-0.44-0.45-1.05,0-1.5l8.62-8.62c0.45-0.45,1.05-0.46,1.5-0.01l19.29,19.3l39.27-39.29c0.45-0.45,1.11-0.5,1.56-0.05
		l8.62,8.62c0.45,0.46,0.45,1.06,0.01,1.51L50.958,79.658z"/>
</g>
</svg>
