
<svg xmlns="http://www.w3.org/2000/svg" xmlns:xlink="http://www.w3.org/1999/xlink" width="102" height="40" viewBox="0 0 102 40">
<style type="text/css">
	.st0{fill-rule:evenodd;clip-rule:evenodd;fill:url(#SVGID_1_);}
</style>
<linearGradient id="SVGID_1_" gradientUnits="userSpaceOnUse" x1="0" y1="20.0108" x2="102" y2="20.0108">
	<stop  offset="0" style="stop-color:#FD4632"/>
	<stop  offset="1" style="stop-color:#FA3A72"/>
</linearGradient>
<path class="st0" d="M19,19.8L19,19.8c1-0.5,1.9-1.3,2.5-2.2c0.6-1,0.9-2.1,0.9-3.2c0-1.9-0.9-3.7-2.5-4.8c-1.6-1.2-4-1.8-7.2-1.8H0
	v24.9h13.3c3.3,0,5.8-0.6,7.6-1.8c1.7-1.1,2.7-3,2.6-5.1c0-1.4-0.4-2.7-1.2-3.8C21.5,21,20.3,20.2,19,19.8z M6.9,13h4.8
	c2.4,0,3.5,0.8,3.5,2.4c0,1.6-1.2,2.4-3.5,2.4H6.9V13z M12.8,27.7H6.9v-5.1h5.9c2.4,0,3.7,0.8,3.7,2.5S15.2,27.7,12.8,27.7
	L12.8,27.7z M39.4,13.5v9.3c0.1,1.2-0.3,2.5-1,3.4c-0.7,0.7-1.6,1.2-2.6,1.1c-0.9,0.1-1.8-0.3-2.4-1c-0.6-0.9-0.9-2.1-0.8-3.2v-9.7
	h-6.7v10.8c0,2.9,0.7,5.1,2.2,6.6c1.6,1.5,3.7,2.3,5.9,2.2c1.1,0,2.1-0.2,3.1-0.6c1-0.4,1.8-1,2.5-1.8v2.1h6.4V13.5H39.4L39.4,13.5
	L39.4,13.5z M49.5,32.8L49.5,32.8h6.7V6.4h-6.7V32.8z M95.6,13.5L95.6,13.5l-4.7,11.8l-4.7-11.8h-13l-6.8,6.7V6.4h-6.7v26.4h6.7V28
	l2-2l5.4,6.8h8.1l-8.6-11l6.6-6.9L87.5,33c-0.2,0.5-0.6,0.9-1,1.2c-0.5,0.3-1,0.4-1.6,0.4c-0.5,0-1.1-0.1-1.6-0.3
	c-0.5-0.2-1-0.5-1.4-0.8l-2.3,4.7c0.7,0.6,1.6,1,2.5,1.3c1,0.3,2,0.5,3.1,0.5c1.8,0.1,3.6-0.4,5.1-1.4c1.6-1.3,2.9-3,3.5-5l8.3-20.1
	H95.6z M87.3,6.2c10.8,5.4,12.7,1.4,13.3-0.8c1.4-4.5-2.9-4.7-2.9-4.7c1.5,1.3,1.4,1.8,1.5,2.4c0.1,2.1-3.2,0.6-4.1,0
	c-5.4-3.6-5.8-3.4-7.8-2.8l-0.1,0l-0.1,0c-1.9-0.7-2.4-0.8-7.7,2.8c-0.9,0.6-4.2,2.1-4.1,0c0-0.6,0-1.1,1.5-2.4c0,0-4.2,0.2-2.9,4.7
	C74.6,7.6,76.5,11.6,87.3,6.2L87.3,6.2z"/>
</svg>
