<?xml version="1.0" encoding="UTF-8"?>
<svg id="Capa_1" data-name="Capa 1" xmlns="http://www.w3.org/2000/svg" viewBox="0 0 311.81 117.88">
  <defs>
    <style>
      .cls-1, .cls-2, .cls-3, .cls-4 {
        fill-rule: evenodd;
      }

      .cls-1, .cls-5 {
        fill: #949c9f;
      }

      .cls-6, .cls-7, .cls-4 {
        fill: #939da1;
      }

      .cls-2 {
        fill: #127abf;
      }

      .cls-3 {
        fill: #107bbf;
      }

      .cls-7 {
        font-family: Freehand575BT-RegularB, 'Freehand575 BT';
        font-size: 59.95px;
      }
    </style>
  </defs>
  <text class="cls-7" transform="translate(25.95 103.19)"><tspan x="0" y="0">contigo a toda hora</tspan></text>
  <g>
    <polygon class="cls-2" points="141.63 68.61 152.56 14.29 153.46 14.29 173.31 48.55 192.04 14.29 192.98 14.29 203.98 68.61 192.04 68.61 187.58 44.58 173.46 70.54 172.62 70.54 157.46 44.22 152.84 68.61 141.63 68.61"/>
    <polygon class="cls-4" points="303.07 68.42 311.81 68.42 311.81 19.51 303.07 22.29 303.07 68.42"/>
    <rect class="cls-6" x="284.94" y="34.83" width="8.74" height="33.59"/>
    <polygon class="cls-4" points="257.23 68.42 267.08 68.42 279.47 34.83 270.73 34.83 262.64 59.29 262.51 59.29 254.16 34.83 244.77 34.83 257.23 68.42"/>
    <polygon class="cls-2" points="173.27 34.52 153.54 .16 192.07 .16 173.27 34.52"/>
    <rect class="cls-6" x="284.94" y="22.29" width="8.74" height="8.35"/>
    <path class="cls-4" d="m206.49,51.85c0,9.65,6.46,17.35,17.54,17.35s17.61-7.7,17.61-17.35c0-11.09-7.63-17.8-17.61-17.8s-17.54,6.72-17.54,17.8m9.13-1.04c0-5.02,2.74-9.98,8.41-9.98s8.48,4.83,8.48,9.98c0,5.61-1.76,11.61-8.48,11.61s-8.41-6.06-8.41-11.61Z"/>
    <path class="cls-1" d="m23.33,52.72h0s8.08-2.57,8.08-2.57c-.8-9.62-4.84-16.26-15.82-16.26S0,41.92,0,51.63c0,11.02,6.46,17.41,17.54,17.41,4.7,0,8.35-.91,11.54-2.67v-7.11c-3.26,1.83-6.91,3.39-11.15,3.39-.36,0-.72-.01-1.07-.04-.12,0-.25,0-.37,0-1.19-.08-2.5-.43-3.73-1.13-1.7-.91-2.99-2.33-3.74-4.2l14.3-4.56Zm-14.29-7.68l.05-.14.02-.04c.14-.34.3-.67.47-.98v-.03s.02,0,.02,0c1.2-2.14,3.15-3.51,6.09-3.57.14,0,.28,0,.43,0,1.48,0,2.69.34,3.67.92l.1.06h0c.85.52,1.51,1.23,2.01,2.09h0s.02.04.02.04c.53.9.88,1.94,1.09,3.07l-14.98,4.77c.01-2.3.32-4.43,1.01-6.2Z"/>
    <path class="cls-1" d="m38.41,68.26h8.74v-16.43c0-4.3,1.37-11.15,7.7-11.15,5.61,0,5.67,5.54,5.67,9.65v17.93h8.74v-21.19c0-7.56-3.46-13.17-11.41-13.17-4.57,0-8.28,1.5-11.02,5.35h-.13v-4.56l-8.28,2.64v30.95Z"/>
    <path class="cls-1" d="m81.13,58.16c0,6.65,3.78,10.89,10.63,10.89,2.61,0,4.63-.26,6.46-.78l-.26-6.91c-.91.59-2.41.91-3.98.91-3.33,0-4.11-2.67-4.11-5.54v-15.65h7.76v-6.39h-7.76v-9.52l-8.74,2.8v6.72h-6.46v6.39h6.46v17.09Z"/>
    <path class="cls-1" d="m134.47,34.68h-8.74v16.43c0,4.3-1.37,11.15-7.7,11.15-5.61,0-5.67-5.54-5.67-9.65v-17.93h-8.74v21.19c0,7.57,3.46,13.17,11.41,13.17,4.56,0,8.35-2.09,11.02-5.35h.13v4.57h8.28v-33.59Z"/>
    <polygon class="cls-3" points="141.34 68.45 152.26 14.13 153.16 14.13 173.02 48.39 191.74 14.13 192.68 14.13 203.68 68.45 191.74 68.45 187.28 44.43 173.17 70.39 172.32 70.39 157.16 44.07 152.55 68.45 141.34 68.45"/>
    <polygon class="cls-1" points="302.78 68.26 311.52 68.26 311.52 19.35 302.78 22.14 302.78 68.26"/>
    <rect class="cls-5" x="284.65" y="34.68" width="8.74" height="33.59"/>
    <polygon class="cls-1" points="256.93 68.26 266.78 68.26 279.17 34.68 270.43 34.68 262.35 59.13 262.22 59.13 253.87 34.68 244.48 34.68 256.93 68.26"/>
    <polygon class="cls-3" points="172.97 34.36 153.25 0 191.77 0 172.97 34.36"/>
    <rect class="cls-5" x="284.65" y="22.14" width="8.74" height="8.35"/>
    <path class="cls-1" d="m206.2,51.7c0,9.65,6.46,17.35,17.54,17.35s17.61-7.7,17.61-17.35c0-11.09-7.63-17.8-17.61-17.8s-17.54,6.72-17.54,17.8m9.13-1.04c0-5.02,2.74-9.98,8.41-9.98s8.48,4.83,8.48,9.98c0,5.61-1.76,11.61-8.48,11.61s-8.41-6.06-8.41-11.61Z"/>
  </g>
</svg>