<?xml version="1.0" encoding="UTF-8"?>
<svg id="Capa_1" data-name="Capa 1" xmlns="http://www.w3.org/2000/svg" viewBox="0 0 311.81 116.01">
  <defs>
    <style>
      .cls-1 {
        fill-rule: evenodd;
      }

      .cls-1, .cls-2 {
        fill: #010101;
      }
    </style>
  </defs>
  <g>
    <path class="cls-2" d="m33.74,87.26l-.23-.03c-.27,0-.56.1-.86.29-.3.2-.59.48-.86.85-1.39,1.78-2.54,3.87-3.47,6.28-.93,2.41-1.39,4.38-1.39,5.9,0,.92.16,1.61.47,2.06.31.46.79.69,1.43.69,1.03,0,2.11-.4,3.23-1.19,1.12-.79,2.35-2.01,3.67-3.67.62-.78,1.21-1.65,1.76-2.62.55-.97.88-1.45,1-1.45.18,0,.4.1.67.29.27.2.41.4.41.61,0,.31-.18.84-.53,1.6s-.82,1.56-1.41,2.41c-1.19,1.8-2.52,3.17-4,4.13-1.47.96-2.97,1.43-4.49,1.43-1.64,0-2.94-.47-3.91-1.42s-1.45-2.23-1.45-3.85c0-2.19.6-4.7,1.8-7.55s2.58-5.04,4.14-6.59c.41-.39.84-.67,1.29-.83.45-.17.98-.25,1.58-.25.43,0,.83.07,1.21.2s.79.35,1.21.64c.64.12,1.15.45,1.52,1,.37.55.56,1.25.56,2.11,0,1.35-.35,2.74-1.05,4.19s-1.43,2.17-2.2,2.17c-.43,0-.82-.16-1.16-.48-.34-.32-.51-.68-.51-1.07,0-.6.22-1.57.67-2.88.45-1.32.74-2.31.88-2.97Z"/>
    <path class="cls-2" d="m45.54,88.14l.12-.03c.37-.06.68-.09.94-.09.84,0,1.52.43,2.05,1.29s.8,2,.82,3.42c1.03-.31,1.98-1.01,2.84-2.08.86-1.07,1.41-1.61,1.67-1.61.29,0,.53.07.7.22s.26.35.26.6c0,.31-.09.62-.26.94s-.45.66-.82,1.05c-.72,1.05-1.48,1.89-2.28,2.5-.8.61-1.64,1-2.52,1.16-.86,3.04-1.97,5.36-3.34,6.95-1.37,1.59-2.94,2.39-4.71,2.39-1.33,0-2.39-.43-3.18-1.3s-1.19-2.05-1.19-3.56c0-1.31.32-2.88.97-4.73s1.5-3.61,2.58-5.28c.6-.96,1.2-1.67,1.8-2.15.6-.48,1.2-.72,1.8-.72.39,0,.74.09,1.04.26.3.18.54.43.72.76Zm-5.42,12.18c0,.62.1,1.09.31,1.39s.52.45.95.45c1.03,0,2.15-1.14,3.35-3.42s1.8-4.48,1.8-6.59c0-.53-.1-.94-.29-1.23-.2-.29-.46-.44-.79-.44-.98,0-2.11,1.13-3.4,3.38s-1.93,4.41-1.93,6.45Z"/>
    <path class="cls-2" d="m60.08,92.94c-1.01,1.66-2.18,3.74-3.48,6.23-1.6,3.02-2.8,4.54-3.6,4.54-.74,0-1.35-.23-1.81-.69s-.7-1.09-.7-1.89c0-.98.32-2.74.95-5.3.63-2.56,1.44-4.99,2.41-7.29.33-.8.65-1.33.95-1.58.3-.25.72-.38,1.24-.38.45,0,.86.13,1.24.4s.57.57.57.92c0,.08-.13.38-.38.91-1.64,3.36-2.79,6.95-3.45,10.77,2.59-5,4.62-8.57,6.07-10.73,1.45-2.16,2.56-3.23,3.32-3.23.62,0,1.21.21,1.76.64.55.43.82.92.82,1.46,0,.33-.2.65-.59.97-.39.31-.6.47-.61.47-.1.14-.28.56-.56,1.27-.27.71-.57,1.57-.88,2.56-.41,1.41-.74,2.76-1,4.05-.25,1.3-.38,2.26-.38,2.88,0,.41.05.73.16.97.11.23.26.35.45.35.62,0,1.81-1.49,3.57-4.48.31-.55.56-.97.73-1.26.06-.1.14-.25.23-.47.19-.45.46-.67.79-.67.19,0,.45.14.78.42s.48.52.48.72c0,.39-.45,1.41-1.36,3.07s-1.92,3.05-3.03,4.19c-.39.39-.79.69-1.2.89s-.83.31-1.26.31c-1,0-1.77-.41-2.33-1.23s-.83-1.97-.83-3.45c0-.68.07-1.55.22-2.61s.38-2.3.69-3.75Z"/>
    <path class="cls-2" d="m71.15,80.59c-1.07.08-2.04.14-2.9.18s-1.49.06-1.9.06c-.84,0-1.49-.14-1.95-.41-.46-.27-.69-.65-.69-1.14,0-.45.49-.79,1.46-1.02.98-.23,3.37-.5,7.17-.79.64-2.05,1.16-3.35,1.55-3.89.39-.55.9-.82,1.52-.82.51,0,.93.11,1.27.32.34.21.51.49.51.82-.64,1.46-1.06,2.6-1.26,3.4,1-.08,1.95-.14,2.85-.18s1.73-.06,2.47-.06c1.83,0,3.12.14,3.86.41.74.27,1.11.74,1.11,1.41,0,.23-.12.4-.35.5s-.75.15-1.55.15c-.9,0-2.41.09-4.55.28s-3.76.32-4.87.4c-1.58,4.2-2.83,8.08-3.76,11.65-.93,3.57-1.39,6.18-1.39,7.82,0,.55.09.98.28,1.29.19.31.43.47.75.47.49,0,1.05-.32,1.7-.97s1.32-1.56,2.02-2.75c.51-.88,1-1.89,1.48-3.03.48-1.14.8-1.71.98-1.71.37,0,.7.12,1,.35s.44.5.44.79c0,.41-.36,1.33-1.08,2.77-.72,1.43-1.62,2.86-2.69,4.29-.62.86-1.33,1.51-2.11,1.96-.78.45-1.6.67-2.46.67-.98,0-1.76-.42-2.34-1.27s-.88-2-.88-3.44c0-1.72.37-4.16,1.11-7.33s1.8-6.88,3.19-11.14Z"/>
    <path class="cls-2" d="m78.93,103.71c-1.03,0-1.86-.44-2.47-1.32s-.92-2.08-.92-3.6c0-1.78.29-3.81.88-6.09s1.17-3.84,1.76-4.68c.23-.37.6-.66,1.11-.88.51-.21,1.07-.32,1.7-.32.35,0,.63.08.83.25s.31.4.31.72c0,.12-.14.53-.41,1.23l-.44,1.17-.38,1.08c-1.66,4.53-2.49,7.38-2.49,8.55,0,.45.08.78.25,1,.17.21.42.32.78.32.51,0,1.24-.49,2.2-1.46.96-.98,1.9-2.24,2.84-3.81.12-.21.28-.53.5-.94.33-.64.59-.97.76-.97.23,0,.47.11.72.34.24.22.37.49.37.8,0,.14-.34.78-1.02,1.93-.33.57-.6,1.01-.79,1.35-1.13,1.93-2.17,3.3-3.1,4.11s-1.92,1.21-2.96,1.21Zm2.28-18.44c-.6,0-1.09-.16-1.46-.47-.37-.31-.56-.74-.56-1.29,0-.72.38-1.32,1.14-1.8s1.55-.72,2.37-.72c.53,0,.92.13,1.19.38s.4.62.4,1.11c0,.7-.32,1.34-.95,1.92-.63.58-1.34.86-2.12.86Z"/>
    <path class="cls-2" d="m92.02,99.35c-1.35,1.89-2.44,3.21-3.29,3.94s-1.65,1.1-2.41,1.1c-1,0-1.8-.37-2.4-1.1-.6-.73-.91-1.72-.91-2.97,0-1.68.42-3.6,1.27-5.75s1.97-4.12,3.35-5.9c.84-1.05,1.51-1.75,2.02-2.08.51-.33,1.07-.5,1.7-.5.47,0,.99.15,1.57.44.58.29,1.24.76,2.01,1.41.55-.12.91-.19,1.08-.22s.32-.04.44-.04c.6,0,1.11.17,1.51.5.4.33.6.76.6,1.29,0,.14-.17.57-.5,1.29-1.48,3.34-2.74,7.17-3.78,11.5-.25,1.07-.6,2.81-1.05,5.2-.45,2.39-.87,4.01-1.26,4.84-.53,1.15-1.45,2.06-2.77,2.72s-2.83,1-4.55,1c-1.52,0-2.75-.24-3.69-.73s-1.41-1.1-1.41-1.84c0-.33.08-.6.25-.82.17-.21.38-.32.63-.32.22,0,.4.09.54.26s.31.44.48.79c.45.18.9.31,1.35.4.45.09.92.13,1.41.13,1.05,0,1.97-.15,2.75-.45s1.44-.76,1.99-1.36c.35-.88.74-2.17,1.16-3.86.42-1.7,1.06-4.64,1.92-8.84Zm-6.85,1.84c0,.47.1.82.29,1.05.2.23.48.35.85.35s.76-.19,1.17-.56.92-.99,1.52-1.84c1.42-1.99,2.59-3.92,3.5-5.78s1.36-3.2,1.36-4c0-.43-.12-.77-.35-1.01s-.56-.37-.97-.37c-.53,0-1.21.46-2.06,1.38s-1.76,2.21-2.74,3.89c-.78,1.35-1.41,2.66-1.87,3.95s-.7,2.26-.7,2.93Z"/>
    <path class="cls-2" d="m107.33,88.14l.12-.03c.37-.06.68-.09.94-.09.84,0,1.52.43,2.05,1.29s.8,2,.82,3.42c1.03-.31,1.98-1.01,2.84-2.08.86-1.07,1.41-1.61,1.67-1.61.29,0,.53.07.7.22s.26.35.26.6c0,.31-.09.62-.26.94s-.45.66-.82,1.05c-.72,1.05-1.48,1.89-2.28,2.5-.8.61-1.64,1-2.52,1.16-.86,3.04-1.97,5.36-3.34,6.95-1.37,1.59-2.94,2.39-4.71,2.39-1.33,0-2.39-.43-3.18-1.3s-1.19-2.05-1.19-3.56c0-1.31.32-2.88.97-4.73s1.5-3.61,2.58-5.28c.6-.96,1.2-1.67,1.8-2.15.6-.48,1.2-.72,1.8-.72.39,0,.74.09,1.04.26.3.18.54.43.72.76Zm-5.42,12.18c0,.62.1,1.09.31,1.39s.52.45.95.45c1.03,0,2.15-1.14,3.35-3.42s1.8-4.48,1.8-6.59c0-.53-.1-.94-.29-1.23-.2-.29-.46-.44-.79-.44-.98,0-2.11,1.13-3.4,3.38s-1.93,4.41-1.93,6.45Z"/>
    <path class="cls-2" d="m135.84,98.65c-.98,1.78-2.04,3.15-3.19,4.11-1.15.97-2.28,1.45-3.4,1.45-.9,0-1.62-.34-2.18-1.01s-.83-1.54-.83-2.59c0-1.39.26-2.89.79-4.51s1.31-3.3,2.34-5.03c1-1.8,2.07-3.21,3.23-4.24,1.16-1.03,2.24-1.55,3.23-1.55.53,0,1.01.14,1.46.41.45.27.9.71,1.35,1.32.39-.12.7-.2.94-.23s.46-.06.67-.06c.7,0,1.28.15,1.73.45.45.3.67.67.67,1.1,0,.27-.26.95-.79,2.02-.45.88-.8,1.6-1.05,2.17-.74,1.64-1.33,3.13-1.76,4.48-.43,1.35-.64,2.29-.64,2.84,0,.29.04.5.12.61.08.12.21.18.41.18.29,0,.71-.3,1.24-.89.54-.6,1.45-1.8,2.74-3.62.23-.33.51-.74.82-1.23.33-.53.58-.79.73-.79.21,0,.43.16.64.47.21.31.32.6.32.85,0,.31-.31,1.01-.94,2.09-.62,1.08-1.4,2.22-2.31,3.41-.7.92-1.34,1.57-1.92,1.95-.58.38-1.18.57-1.8.57-.86,0-1.52-.31-1.99-.92s-.7-1.49-.7-2.62c0-.31,0-.56.01-.73,0-.18.02-.32.04-.44Zm1.9-9.25c0-.27-.08-.49-.23-.66-.16-.17-.37-.25-.64-.25-.66,0-1.42.45-2.28,1.35-.86.9-1.72,2.15-2.58,3.75-.82,1.54-1.47,3-1.96,4.38s-.73,2.41-.73,3.12c.02.29.06.48.13.57.07.09.18.12.34.1.39,0,.94-.34,1.65-1.02.71-.68,1.44-1.58,2.18-2.69,1.15-1.72,2.13-3.48,2.93-5.28.8-1.81,1.2-2.92,1.2-3.35Z"/>
    <path class="cls-2" d="m163,80.59c-1.07.08-2.04.14-2.9.18s-1.49.06-1.9.06c-.84,0-1.49-.14-1.95-.41s-.69-.65-.69-1.14c0-.45.49-.79,1.46-1.02s3.37-.5,7.17-.79c.64-2.05,1.16-3.35,1.55-3.89.39-.55.9-.82,1.52-.82.51,0,.93.11,1.27.32.34.21.51.49.51.82-.64,1.46-1.06,2.6-1.26,3.4,1-.08,1.95-.14,2.85-.18s1.73-.06,2.47-.06c1.83,0,3.12.14,3.86.41.74.27,1.11.74,1.11,1.41,0,.23-.12.4-.35.5s-.75.15-1.55.15c-.9,0-2.41.09-4.55.28s-3.76.32-4.87.4c-1.58,4.2-2.84,8.08-3.76,11.65-.93,3.57-1.39,6.18-1.39,7.82,0,.55.09.98.28,1.29.19.31.43.47.75.47.49,0,1.05-.32,1.7-.97s1.32-1.56,2.02-2.75c.51-.88,1-1.89,1.48-3.03.48-1.14.8-1.71.98-1.71.37,0,.7.12,1,.35s.44.5.44.79c0,.41-.36,1.33-1.08,2.77-.72,1.43-1.62,2.86-2.69,4.29-.63.86-1.33,1.51-2.11,1.96-.78.45-1.6.67-2.46.67-.98,0-1.76-.42-2.34-1.27s-.88-2-.88-3.44c0-1.72.37-4.16,1.11-7.33s1.8-6.88,3.19-11.14Z"/>
    <path class="cls-2" d="m175.5,88.14l.12-.03c.37-.06.68-.09.94-.09.84,0,1.52.43,2.05,1.29s.8,2,.82,3.42c1.03-.31,1.98-1.01,2.84-2.08.86-1.07,1.41-1.61,1.67-1.61.29,0,.53.07.7.22s.26.35.26.6c0,.31-.09.62-.26.94s-.45.66-.82,1.05c-.72,1.05-1.48,1.89-2.28,2.5-.8.61-1.64,1-2.52,1.16-.86,3.04-1.97,5.36-3.34,6.95-1.37,1.59-2.94,2.39-4.71,2.39-1.33,0-2.39-.43-3.18-1.3s-1.19-2.05-1.19-3.56c0-1.31.32-2.88.97-4.73s1.5-3.61,2.58-5.28c.6-.96,1.2-1.67,1.8-2.15.6-.48,1.2-.72,1.8-.72.39,0,.74.09,1.04.26.3.18.54.43.72.76Zm-5.42,12.18c0,.62.1,1.09.31,1.39s.52.45.95.45c1.03,0,2.15-1.14,3.35-3.42s1.8-4.48,1.8-6.59c0-.53-.1-.94-.29-1.23-.2-.29-.46-.44-.79-.44-.98,0-2.11,1.13-3.4,3.38s-1.93,4.41-1.93,6.45Z"/>
    <path class="cls-2" d="m189.14,100.08c-.86,1.78-1.81,3.2-2.84,4.26-1.04,1.06-1.97,1.6-2.81,1.6-.94,0-1.74-.48-2.4-1.45s-1-2.16-1-3.59c0-1.87.54-3.97,1.61-6.28s2.49-4.38,4.24-6.19c.49-.47.93-.81,1.32-1.04.39-.22.77-.34,1.14-.34.45,0,.94.14,1.48.42.54.28,1.11.7,1.71,1.24.68-1.93,1.54-4.44,2.58-7.52,1.93-5.72,3.33-8.58,4.19-8.58.64,0,1.17.13,1.6.4.42.26.63.59.63.98s-.36,1.35-1.08,2.87c-.51,1.07-.91,1.95-1.2,2.63-1.87,4.33-3.37,8.41-4.49,12.24-1.12,3.82-1.68,6.56-1.68,8.2,0,.39.05.69.16.89.11.2.26.31.45.31.33,0,.75-.27,1.24-.8s1.21-1.52,2.15-2.94c.19-.29.41-.67.64-1.14.31-.6.59-.91.82-.91.16,0,.29.05.41.16s.18.23.18.37c0,.23-.12.63-.35,1.19s-.58,1.26-1.02,2.12c-.88,1.68-1.69,2.88-2.43,3.6-.74.72-1.53,1.08-2.37,1.08s-1.51-.33-2.01-.98-.79-1.59-.86-2.8Zm2.02-9.92c-.22-.27-.42-.47-.61-.59-.2-.12-.4-.18-.61-.18-.47,0-1.01.31-1.61.94-.6.62-1.36,1.63-2.25,3.02-.96,1.48-1.71,3.02-2.27,4.6s-.83,2.93-.83,4.04c0,.35.1.66.29.92.19.26.42.4.67.4.84,0,1.95-1.22,3.32-3.66s2.68-5.6,3.91-9.48Z"/>
    <path class="cls-2" d="m204.42,98.65c-.98,1.78-2.04,3.15-3.19,4.11-1.15.97-2.28,1.45-3.4,1.45-.9,0-1.62-.34-2.18-1.01s-.83-1.54-.83-2.59c0-1.39.26-2.89.79-4.51s1.31-3.3,2.34-5.03c1-1.8,2.07-3.21,3.23-4.24,1.16-1.03,2.24-1.55,3.23-1.55.53,0,1.01.14,1.46.41.45.27.9.71,1.35,1.32.39-.12.7-.2.94-.23s.46-.06.67-.06c.7,0,1.28.15,1.73.45.45.3.67.67.67,1.1,0,.27-.26.95-.79,2.02-.45.88-.8,1.6-1.05,2.17-.74,1.64-1.33,3.13-1.76,4.48-.43,1.35-.64,2.29-.64,2.84,0,.29.04.5.12.61.08.12.21.18.41.18.29,0,.71-.3,1.24-.89.54-.6,1.45-1.8,2.74-3.62.23-.33.51-.74.82-1.23.33-.53.57-.79.73-.79.21,0,.43.16.64.47.21.31.32.6.32.85,0,.31-.31,1.01-.94,2.09-.63,1.08-1.4,2.22-2.31,3.41-.7.92-1.34,1.57-1.92,1.95-.58.38-1.18.57-1.8.57-.86,0-1.52-.31-1.99-.92s-.7-1.49-.7-2.62c0-.31,0-.56.01-.73,0-.18.02-.32.04-.44Zm1.9-9.25c0-.27-.08-.49-.23-.66-.16-.17-.37-.25-.64-.25-.66,0-1.42.45-2.28,1.35-.86.9-1.72,2.15-2.58,3.75-.82,1.54-1.47,3-1.96,4.38-.49,1.38-.73,2.41-.73,3.12.02.29.06.48.13.57s.18.12.34.1c.39,0,.94-.34,1.65-1.02.71-.68,1.44-1.58,2.18-2.69,1.15-1.72,2.13-3.48,2.93-5.28.8-1.81,1.2-2.92,1.2-3.35Z"/>
    <path class="cls-2" d="m235.31,94.08c-.68,1.11-1.55,2.6-2.61,4.45-2.36,4.14-4.17,6.21-5.42,6.21-.64,0-1.11-.13-1.39-.4s-.42-.69-.42-1.27c0-1.25.73-4.06,2.18-8.43,1.45-4.37,3.39-9.45,5.81-15.25.16-.37.37-.9.64-1.58,2.01-4.86,3.69-7.29,5.03-7.29.27,0,.51.09.72.28s.31.4.31.63c0,.14-.36.99-1.08,2.55-3.94,8.57-7.45,17.56-10.54,26.99,1.17-1.74,2.64-4.01,4.42-6.82,3.12-4.96,5.39-7.44,6.79-7.44.39,0,.72.14.98.42s.4.64.4,1.07c0,.29-.04.58-.12.86-.08.28-.22.64-.44,1.07-1.41,3.01-2.41,5.31-3,6.91-.6,1.6-.89,2.77-.89,3.51,0,.27.04.48.13.63s.21.22.37.22c.43,0,.98-.39,1.67-1.16.68-.77,1.6-2.06,2.75-3.88.06-.1.14-.22.23-.38.45-.72.79-1.08,1.02-1.08.14,0,.35.17.64.5s.44.6.44.82c0,.37-.34,1.14-1.02,2.31-.68,1.17-1.5,2.26-2.46,3.28-.64.68-1.27,1.18-1.89,1.49s-1.26.47-1.95.47c-.86,0-1.52-.26-1.99-.78s-.7-1.27-.7-2.27c0-.72.1-1.59.31-2.59s.56-2.36,1.07-4.05Z"/>
    <path class="cls-2" d="m249.91,88.14l.12-.03c.37-.06.68-.09.94-.09.84,0,1.52.43,2.05,1.29s.8,2,.82,3.42c1.03-.31,1.98-1.01,2.84-2.08.86-1.07,1.41-1.61,1.67-1.61.29,0,.53.07.7.22s.26.35.26.6c0,.31-.09.62-.26.94s-.45.66-.82,1.05c-.72,1.05-1.48,1.89-2.28,2.5-.8.61-1.64,1-2.52,1.16-.86,3.04-1.97,5.36-3.34,6.95-1.37,1.59-2.94,2.39-4.71,2.39-1.33,0-2.39-.43-3.18-1.3s-1.19-2.05-1.19-3.56c0-1.31.32-2.88.97-4.73s1.5-3.61,2.58-5.28c.6-.96,1.2-1.67,1.8-2.15.6-.48,1.2-.72,1.8-.72.39,0,.74.09,1.04.26.3.18.54.43.72.76Zm-5.42,12.18c0,.62.1,1.09.31,1.39s.52.45.95.45c1.03,0,2.15-1.14,3.35-3.42s1.8-4.48,1.8-6.59c0-.53-.1-.94-.29-1.23-.2-.29-.46-.44-.79-.44-.98,0-2.11,1.13-3.4,3.38s-1.93,4.41-1.93,6.45Z"/>
    <path class="cls-2" d="m258.58,87.52c-.37-.23-.63-.45-.79-.64-.16-.2-.23-.42-.23-.67,0-.62.35-1.24,1.05-1.84s1.47-.91,2.31-.91c.43,0,.79.12,1.07.37.28.24.42.54.42.89,0,.18-.03.4-.07.67-.05.27-.12.59-.22.94l1.99.59c.12-.21.28-.43.48-.66s.45-.45.75-.69c.18-.06.33-.1.47-.13.14-.03.24-.04.32-.04.47,0,.94.17,1.41.5s.7.68.7,1.05c0,.29-.1.58-.29.85-.2.27-.52.59-.97.94-1.25,2.07-2.19,4.03-2.82,5.88-.63,1.85-.95,3.51-.95,4.98,0,.47.08.85.23,1.16.16.3.35.45.59.45.6,0,1.3-.47,2.09-1.41s1.61-2.28,2.47-4.04c.1-.2.22-.46.38-.79.39-.88.72-1.32,1-1.32.25,0,.5.11.73.32s.35.45.35.7c0,.29-.17.79-.5,1.49-.33.7-.79,1.52-1.38,2.46-1.23,1.99-2.26,3.34-3.09,4.04-.83.7-1.73,1.05-2.71,1.05-1.11,0-1.98-.35-2.61-1.04-.63-.69-.94-1.64-.94-2.85s.2-2.61.6-4.2c.4-1.59,1.02-3.42,1.86-5.49l-1.61-.5c-1.01,2.81-1.87,4.82-2.58,6.03s-1.35,1.81-1.93,1.81c-.23,0-.42-.08-.57-.23s-.22-.37-.22-.64c0-.08.14-.41.41-1,1.19-2.65,2.12-5.35,2.78-8.08Z"/>
    <path class="cls-2" d="m276.32,98.65c-.98,1.78-2.04,3.15-3.19,4.11-1.15.97-2.28,1.45-3.4,1.45-.9,0-1.62-.34-2.18-1.01s-.83-1.54-.83-2.59c0-1.39.26-2.89.79-4.51s1.31-3.3,2.34-5.03c1-1.8,2.07-3.21,3.23-4.24,1.16-1.03,2.24-1.55,3.23-1.55.53,0,1.01.14,1.46.41.45.27.9.71,1.35,1.32.39-.12.7-.2.94-.23s.46-.06.67-.06c.7,0,1.28.15,1.73.45.45.3.67.67.67,1.1,0,.27-.26.95-.79,2.02-.45.88-.8,1.6-1.05,2.17-.74,1.64-1.33,3.13-1.76,4.48-.43,1.35-.64,2.29-.64,2.84,0,.29.04.5.12.61.08.12.21.18.41.18.29,0,.71-.3,1.24-.89.54-.6,1.45-1.8,2.74-3.62.23-.33.51-.74.82-1.23.33-.53.57-.79.73-.79.21,0,.43.16.64.47.21.31.32.6.32.85,0,.31-.31,1.01-.94,2.09-.63,1.08-1.4,2.22-2.31,3.41-.7.92-1.34,1.57-1.92,1.95-.58.38-1.18.57-1.8.57-.86,0-1.52-.31-1.99-.92s-.7-1.49-.7-2.62c0-.31,0-.56.01-.73,0-.18.02-.32.04-.44Zm1.9-9.25c0-.27-.08-.49-.23-.66-.16-.17-.37-.25-.64-.25-.66,0-1.42.45-2.28,1.35-.86.9-1.72,2.15-2.58,3.75-.82,1.54-1.47,3-1.96,4.38-.49,1.38-.73,2.41-.73,3.12.02.29.06.48.13.57s.18.12.34.1c.39,0,.94-.34,1.65-1.02.71-.68,1.44-1.58,2.18-2.69,1.15-1.72,2.13-3.48,2.93-5.28.8-1.81,1.2-2.92,1.2-3.35Z"/>
  </g>
  <g>
    <polygon class="cls-1" points="141.63 68.61 152.56 14.29 153.46 14.29 173.31 48.55 192.04 14.29 192.98 14.29 203.98 68.61 192.04 68.61 187.58 44.58 173.46 70.54 172.62 70.54 157.46 44.22 152.84 68.61 141.63 68.61"/>
    <polygon class="cls-1" points="303.07 68.42 311.81 68.42 311.81 19.51 303.07 22.29 303.07 68.42"/>
    <rect class="cls-2" x="284.94" y="34.83" width="8.74" height="33.59"/>
    <polygon class="cls-1" points="257.23 68.42 267.07 68.42 279.47 34.83 270.73 34.83 262.64 59.29 262.51 59.29 254.16 34.83 244.77 34.83 257.23 68.42"/>
    <polygon class="cls-1" points="173.27 34.52 153.54 .16 192.07 .16 173.27 34.52"/>
    <rect class="cls-2" x="284.94" y="22.29" width="8.74" height="8.35"/>
    <path class="cls-1" d="m206.49,51.85c0,9.65,6.46,17.35,17.54,17.35s17.61-7.7,17.61-17.35c0-11.09-7.63-17.8-17.61-17.8s-17.54,6.72-17.54,17.8m9.13-1.04c0-5.02,2.74-9.98,8.41-9.98s8.48,4.83,8.48,9.98c0,5.61-1.76,11.61-8.48,11.61s-8.41-6.06-8.41-11.61Z"/>
    <path class="cls-1" d="m23.33,52.72h0s8.08-2.57,8.08-2.57c-.8-9.62-4.84-16.26-15.82-16.26S0,41.92,0,51.63c0,11.02,6.46,17.41,17.54,17.41,4.7,0,8.35-.91,11.54-2.67v-7.11c-3.26,1.83-6.91,3.39-11.15,3.39-.36,0-.72-.01-1.07-.04-.12,0-.25,0-.37,0-1.19-.08-2.5-.43-3.73-1.13-1.7-.91-2.99-2.33-3.74-4.2l14.3-4.56Zm-14.29-7.68l.05-.14.02-.04c.14-.34.3-.67.47-.98v-.03s.02,0,.02,0c1.2-2.14,3.15-3.51,6.09-3.57.14,0,.28,0,.43,0,1.48,0,2.69.34,3.67.92l.1.06h0c.85.52,1.51,1.23,2.01,2.09h0s.02.04.02.04c.53.9.88,1.94,1.09,3.07l-14.98,4.77c.01-2.3.32-4.43,1.01-6.2Z"/>
    <path class="cls-1" d="m38.41,68.26h8.74v-16.43c0-4.3,1.37-11.15,7.7-11.15,5.61,0,5.67,5.54,5.67,9.65v17.93h8.74v-21.19c0-7.56-3.46-13.17-11.41-13.17-4.57,0-8.28,1.5-11.02,5.35h-.13v-4.56l-8.28,2.64v30.95Z"/>
    <path class="cls-1" d="m81.13,58.16c0,6.65,3.78,10.89,10.63,10.89,2.61,0,4.63-.26,6.46-.78l-.26-6.91c-.91.59-2.41.91-3.98.91-3.33,0-4.11-2.67-4.11-5.54v-15.65h7.76v-6.39h-7.76v-9.52l-8.74,2.8v6.72h-6.46v6.39h6.46v17.09Z"/>
    <path class="cls-1" d="m134.47,34.68h-8.74v16.43c0,4.3-1.37,11.15-7.7,11.15-5.61,0-5.67-5.54-5.67-9.65v-17.93h-8.74v21.19c0,7.57,3.46,13.17,11.41,13.17,4.56,0,8.35-2.09,11.02-5.35h.13v4.57h8.28v-33.59Z"/>
    <polygon class="cls-1" points="141.34 68.45 152.26 14.13 153.16 14.13 173.02 48.39 191.74 14.13 192.68 14.13 203.68 68.45 191.74 68.45 187.28 44.43 173.17 70.39 172.32 70.39 157.16 44.07 152.55 68.45 141.34 68.45"/>
    <polygon class="cls-1" points="302.78 68.26 311.52 68.26 311.52 19.35 302.78 22.14 302.78 68.26"/>
    <rect class="cls-2" x="284.65" y="34.68" width="8.74" height="33.59"/>
    <polygon class="cls-1" points="256.93 68.26 266.78 68.26 279.17 34.68 270.43 34.68 262.35 59.13 262.21 59.13 253.87 34.68 244.48 34.68 256.93 68.26"/>
    <polygon class="cls-1" points="172.97 34.36 153.25 0 191.77 0 172.97 34.36"/>
    <rect class="cls-2" x="284.65" y="22.14" width="8.74" height="8.35"/>
    <path class="cls-1" d="m206.2,51.7c0,9.65,6.46,17.35,17.54,17.35s17.61-7.7,17.61-17.35c0-11.09-7.63-17.8-17.61-17.8s-17.54,6.72-17.54,17.8m9.13-1.04c0-5.02,2.74-9.98,8.41-9.98s8.48,4.83,8.48,9.98c0,5.61-1.76,11.61-8.48,11.61s-8.41-6.06-8.41-11.61Z"/>
  </g>
</svg>