<?xml version="1.0" encoding="utf-8"?>
<svg version="1.1" xmlns:xlink="http://www.w3.org/1999/xlink" width="38px" height="28px" xmlns="http://www.w3.org/2000/svg">
  <g transform="matrix(1 0 0 1 -448 -192 )">
    <path d="M 18.1799901912702 11.94921875  C 16.7822461991172 13.31640625  15.0956351152526 14  13.1201569396763 14  C 11.1446787641 14  9.45806768023541 13.31640625  8.06032368808239 11.94921875  C 6.66257969592938 10.58203125  5.96370769985287 8.93229166666667  5.96370769985287 7  C 5.96370769985287 5.06770833333333  6.66257969592938 3.41796875  8.06032368808239 2.05078125  C 9.45806768023541 0.68359375  11.1446787641 0  13.1201569396763 0  C 15.0956351152526 0  16.7822461991172 0.68359375  18.1799901912702 2.05078125  C 19.5777341834232 3.41796875  20.2766061794998 5.06770833333333  20.2766061794998 7  C 20.2766061794998 8.93229166666667  19.5777341834232 10.58203125  18.1799901912702 11.94921875  Z M 37.8322707209416 15.2942708333333  L 33.1917606669936 19.8333333333333  L 37.8322707209416 24.3723958333333  C 37.9440902403139 24.4817708333333  38 24.6215277777778  38 24.7916666666667  C 38 24.9496527777778  37.9440902403139 25.0833333333333  37.8322707209416 25.1927083333333  L 35.2976949485042 27.671875  C 35.1858754291319 27.78125  35.049207127677 27.8359375  34.8876900441393 27.8359375  C 34.7137485695602 27.8359375  34.5708680725846 27.78125  34.4590485532124 27.671875  L 29.8185384992643 23.1328125  L 25.1780284453163 27.671875  C 25.0662089259441 27.78125  24.9233284289685 27.8359375  24.7493869543894 27.8359375  C 24.5878698708517 27.8359375  24.4512015693968 27.78125  24.3393820500245 27.671875  L 21.8048062775871 25.1927083333333  C 21.6929867582148 25.0833333333333  21.6370769985287 24.9496527777778  21.6370769985287 24.7916666666667  C 21.6370769985287 24.6215277777778  21.6929867582148 24.4817708333333  21.8048062775871 24.3723958333333  L 26.4453163315351 19.8333333333333  L 21.8048062775871 15.2942708333333  C 21.6929867582148 15.1848958333333  21.6370769985287 15.0451388888889  21.6370769985287 14.875  C 21.6370769985287 14.7170138888889  21.6929867582148 14.5833333333333  21.8048062775871 14.4739583333333  L 24.3393820500245 11.9947916666667  C 24.4512015693968 11.8854166666667  24.5878698708517 11.8307291666667  24.7493869543894 11.8307291666667  C 24.9233284289685 11.8307291666667  25.0662089259441 11.8854166666667  25.1780284453163 11.9947916666667  L 29.8185384992643 16.5338541666667  L 34.4590485532124 11.9947916666667  C 34.5708680725846 11.8854166666667  34.7137485695602 11.8307291666667  34.8876900441393 11.8307291666667  C 35.049207127677 11.8307291666667  35.1858754291319 11.8854166666667  35.2976949485042 11.9947916666667  L 37.8322707209416 14.4739583333333  C 37.9440902403139 14.5833333333333  38 14.7170138888889  38 14.875  C 38 15.0451388888889  37.9440902403139 15.1848958333333  37.8322707209416 15.2942708333333  Z M 20.5375183913683 16.5338541666667  L 23.9107405590976 19.8333333333333  L 20.5375183913683 23.1328125  C 20.077815922838 23.5824652777778  19.8479646885728 24.1354166666667  19.8479646885728 24.7916666666667  C 19.8479646885728 25.4357638888889  20.077815922838 25.9826388888889  20.5375183913683 26.4322916666667  L 22.0843550760177 27.9453125  C 21.8234428641491 27.9817708333333  21.5501062612392 28  21.2643452672879 28  L 4.97596861206474 28  C 3.47261729606016 28  2.26745136504823 27.5807291666667  1.36047081902894 26.7421875  C 0.453490273009645 25.9036458333333  0 24.7491319444444  0 23.2786458333333  C 0 22.6345486111111  0.0217426843223802 22.0056423611111  0.0652280529671408 21.3919270833333  C 0.108713421611901 20.7782118055556  0.195684158901422 20.1158854166667  0.326140264835704 19.4049479166667  C 0.456596370769985 18.6940104166667  0.621219552068007 18.0347222222222  0.820009808729769 17.4270833333333  C 1.01880006539153 16.8194444444444  1.28592447278077 16.2269965277778  1.6213830308975 15.6497395833333  C 1.95684158901422 15.0724826388889  2.34199771129639 14.5802951388889  2.77685139774399 14.1731770833333  C 3.2117050841916 13.7660590277778  3.74284780120974 13.4409722222222  4.37027954879843 13.1979166666667  C 4.99771129638712 12.9548611111111  5.69037109694295 12.8333333333333  6.44825895046591 12.8333333333333  C 6.68432238025176 12.8333333333333  6.92659800555828 12.9366319444444  7.17508582638548 13.1432291666667  C 9.08844204675495 14.6258680555556  11.0701324178519 15.3671875  13.1201569396763 15.3671875  C 15.1701814615007 15.3671875  17.1518718325977 14.6258680555556  19.0652280529671 13.1432291666667  C 19.3137158737943 12.9366319444444  19.5559914991009 12.8333333333333  19.7920549288867 12.8333333333333  C 20.1399378780448 12.8333333333333  20.4940330227236 12.8697916666667  20.854340362923 12.9427083333333  C 20.5064574137649 13.2708333333333  20.251757397417 13.5746527777778  20.0902403138794 13.8541666666667  C 19.9287232303417 14.1336805555556  19.8479646885728 14.4739583333333  19.8479646885728 14.875  C 19.8479646885728 15.53125  20.077815922838 16.0842013888889  20.5375183913683 16.5338541666667  Z " fill-rule="nonzero" fill="#000000" stroke="none" transform="matrix(1 0 0 1 448 192 )" />
  </g>
</svg>